<svg width="86" height="78" viewBox="0 0 86 78" fill="none" xmlns="http://www.w3.org/2000/svg">
<rect width="86" height="78" fill="#231F20"/>
<path d="M34.2 32.3302V40.2202C34.2 42.8802 32.25 45.2602 29.6 45.5202C26.56 45.8102 24 43.4302 24 40.4402V31.8102C24 27.7502 27.3 24.4502 31.37 24.4502H43.39C44.66 24.4502 45.84 25.1402 46.46 26.2502L49.04 30.8402C49.66 31.9502 50.84 32.6402 52.11 32.6402H58.61C59.26 32.6402 59.79 33.1702 59.79 33.8202V37.1102C59.79 41.1802 56.49 44.4802 52.42 44.4802H42.48V57.1402H26.92V45.0602" fill="#231F20"/>
<path d="M34.2 32.3302V40.2202C34.2 42.8802 32.25 45.2602 29.6 45.5202C26.56 45.8102 24 43.4302 24 40.4402V31.8102C24 27.7502 27.3 24.4502 31.37 24.4502H43.39C44.66 24.4502 45.84 25.1402 46.46 26.2502L49.04 30.8402C49.66 31.9502 50.84 32.6402 52.11 32.6402H58.61C59.26 32.6402 59.79 33.1702 59.79 33.8202V37.1102C59.79 41.1802 56.49 44.4802 52.42 44.4802H42.48V57.1402H26.92V45.0602" stroke="white" stroke-miterlimit="10" stroke-linecap="round"/>
<path d="M59.3399 39.71C56.4599 42.59 51.7999 42.59 48.9199 39.71" stroke="white" stroke-linecap="round" stroke-linejoin="round"/>
<path d="M61.9101 24.72C62.3301 23.48 61.9101 22.05 60.7901 21.39C60.3701 21.14 59.8701 21 59.3501 21C58.8301 21 58.3301 21.14 57.9101 21.39C56.7901 22.05 56.3701 23.48 56.7901 24.72L59.3001 32.16C59.3201 32.21 59.3901 32.21 59.4101 32.16L61.9201 24.72H61.9101Z" fill="#231F20" stroke="white" stroke-miterlimit="10"/>
<path d="M43.0802 33.9299C44.2676 33.9299 45.2302 32.9673 45.2302 31.7799C45.2302 30.5925 44.2676 29.6299 43.0802 29.6299C41.8928 29.6299 40.9302 30.5925 40.9302 31.7799C40.9302 32.9673 41.8928 33.9299 43.0802 33.9299Z" stroke="white" stroke-width="0.75" stroke-miterlimit="10"/>
<path d="M43.0801 32.5498C43.5053 32.5498 43.8501 32.205 43.8501 31.7798C43.8501 31.3545 43.5053 31.0098 43.0801 31.0098C42.6548 31.0098 42.3101 31.3545 42.3101 31.7798C42.3101 32.205 42.6548 32.5498 43.0801 32.5498Z" fill="white"/>
<path d="M59.3398 25.0098C59.8921 25.0098 60.3398 24.5621 60.3398 24.0098C60.3398 23.4575 59.8921 23.0098 59.3398 23.0098C58.7876 23.0098 58.3398 23.4575 58.3398 24.0098C58.3398 24.5621 58.7876 25.0098 59.3398 25.0098Z" fill="white"/>
</svg>
