<svg width="40" height="38" viewBox="0 0 40 38" fill="none" xmlns="http://www.w3.org/2000/svg">
<path d="M11.2 12.3302V20.2202C11.2 22.8802 9.25 25.2602 6.6 25.5202C3.56 25.8102 1 23.4302 1 20.4402V11.8102C1 7.7502 4.3 4.4502 8.37 4.4502H20.39C21.66 4.4502 22.84 5.1402 23.46 6.2502L26.04 10.8402C26.66 11.9502 27.84 12.6402 29.11 12.6402H35.61C36.26 12.6402 36.79 13.1702 36.79 13.8202V17.1102C36.79 21.1802 33.49 24.4802 29.42 24.4802H19.48V37.1402H3.92V25.0602" fill="white"/>
<path d="M11.2 12.3302V20.2202C11.2 22.8802 9.25 25.2602 6.6 25.5202C3.56 25.8102 1 23.4302 1 20.4402V11.8102C1 7.7502 4.3 4.4502 8.37 4.4502H20.39C21.66 4.4502 22.84 5.1402 23.46 6.2502L26.04 10.8402C26.66 11.9502 27.84 12.6402 29.11 12.6402H35.61C36.26 12.6402 36.79 13.1702 36.79 13.8202V17.1102C36.79 21.1802 33.49 24.4802 29.42 24.4802H19.48V37.1402H3.92V25.0602" stroke="#231F20" stroke-miterlimit="10" stroke-linecap="round"/>
<path d="M36.3399 19.71C33.4599 22.59 28.7999 22.59 25.9199 19.71" stroke="#151515" stroke-linecap="round" stroke-linejoin="round"/>
<path d="M38.9101 4.72C39.3301 3.48 38.9101 2.05 37.7901 1.39C37.3701 1.14 36.8701 1 36.3501 1C35.8301 1 35.3301 1.14 34.9101 1.39C33.7901 2.05 33.3701 3.48 33.7901 4.72L36.3001 12.16C36.3201 12.21 36.3901 12.21 36.4101 12.16L38.9201 4.72H38.9101Z" fill="white" stroke="black" stroke-miterlimit="10"/>
<path d="M20.0802 13.9299C21.2676 13.9299 22.2302 12.9673 22.2302 11.7799C22.2302 10.5925 21.2676 9.62988 20.0802 9.62988C18.8928 9.62988 17.9302 10.5925 17.9302 11.7799C17.9302 12.9673 18.8928 13.9299 20.0802 13.9299Z" fill="white" stroke="black" stroke-width="0.75" stroke-miterlimit="10"/>
</svg>
