<svg width="38" height="36" viewBox="0 0 38 36" fill="none" xmlns="http://www.w3.org/2000/svg">
<path d="M11.2 9.3302V17.2202C11.2 19.8802 9.25 22.2602 6.6 22.5202C3.56 22.8102 1 20.4302 1 17.4402V8.8102C1 4.7502 4.3 1.4502 8.37 1.4502H20.39C21.66 1.4502 22.84 2.1402 23.46 3.2502L26.04 7.8402C26.66 8.9502 27.84 9.6402 29.11 9.6402H35.61C36.26 9.6402 36.79 10.1702 36.79 10.8202V14.1102C36.79 18.1802 33.49 21.4802 29.42 21.4802H19.48V34.1402H3.92V22.0602" fill="white"/>
<path d="M11.2 9.3302V17.2202C11.2 19.8802 9.25 22.2602 6.6 22.5202C3.56 22.8102 1 20.4302 1 17.4402V8.8102C1 4.7502 4.3 1.4502 8.37 1.4502H20.39C21.66 1.4502 22.84 2.1402 23.46 3.2502L26.04 7.8402C26.66 8.9502 27.84 9.6402 29.11 9.6402H35.61C36.26 9.6402 36.79 10.1702 36.79 10.8202V14.1102C36.79 18.1802 33.49 21.4802 29.42 21.4802H19.48V34.1402H3.92V22.0602" stroke="#231F20" stroke-width="2" stroke-miterlimit="10" stroke-linecap="round"/>
<path d="M36.3399 16.71C33.4599 19.59 28.7999 19.59 25.9199 16.71" stroke="#151515" stroke-width="2" stroke-linecap="round" stroke-linejoin="round"/>
<path d="M21.8238 9.65439C22.2871 8.43626 21.8238 7.03148 20.5884 6.38312C20.1251 6.13753 19.5736 6 19 6C18.4264 6 17.8749 6.13753 17.4116 6.38312C16.1762 7.03148 15.7129 8.43626 16.1762 9.65439L18.9448 16.9632C18.9669 17.0123 19.0441 17.0123 19.0662 16.9632L21.8348 9.65439H21.8238Z" fill="black" stroke="black" stroke-miterlimit="10"/>
<path d="M19.15 11.3C20.3374 11.3 21.3 10.3374 21.3 9.15C21.3 7.96259 20.3374 7 19.15 7C17.9626 7 17 7.96259 17 9.15C17 10.3374 17.9626 11.3 19.15 11.3Z" fill="white"/>
</svg>
