<svg width="39" height="36" viewBox="0 0 39 36" fill="none" xmlns="http://www.w3.org/2000/svg">
<path d="M36.8399 16.7598C33.9599 19.6398 29.2999 19.6398 26.4199 16.7598" stroke="#231F20" stroke-width="2" stroke-linecap="round" stroke-linejoin="round"/>
<path d="M28.0299 9.69043H36.1099C36.7599 9.69043 37.2899 10.2204 37.2899 10.8704V14.1604C37.2899 18.2304 33.9899 21.5304 29.9199 21.5304H24.4799L19.9799 34.1904H4.41992V22.1104" stroke="#231F20" stroke-width="2" stroke-miterlimit="10" stroke-linecap="round"/>
<path d="M12.14 9.38V17.27C12.14 19.93 10.19 22.31 7.54 22.57C4.5 22.86 1.5 20.48 1.5 17.49V8.87C1.5 4.8 4.8 1.5 8.87 1.5H20.89" stroke="#231F20" stroke-width="2" stroke-miterlimit="10" stroke-linecap="round"/>
<path d="M27.5701 12.35C28.7901 8.74 27.5701 4.57 24.2901 2.64C23.0601 1.92 21.6201 1.5 20.0801 1.5C18.5401 1.5 17.1101 1.91 15.8701 2.64C12.5901 4.56 11.3701 8.74 12.5901 12.35L19.9101 34.08C19.9601 34.24 20.1901 34.24 20.2401 34.08L27.5601 12.35H27.5701Z" stroke="#231F20" stroke-width="2" stroke-miterlimit="10"/>
<path d="M22.0201 8.82965C22.0201 9.62494 21.3754 10.2696 20.5801 10.2696C19.7848 10.2696 19.1401 9.62494 19.1401 8.82965C19.1401 8.03436 19.7848 7.38965 20.5801 7.38965C21.3754 7.38965 22.0201 8.03436 22.0201 8.82965Z" fill="#231F20" stroke="black" stroke-width="2"/>
</svg>
