<svg width="92" height="33" viewBox="0 0 92 33" fill="none" xmlns="http://www.w3.org/2000/svg">
<path d="M48.9802 0.94C47.9602 0.34 46.7702 0 45.5002 0C44.2302 0 43.0402 0.34 42.0202 0.94C39.3102 2.53 38.3002 5.99 39.3102 8.97L45.3602 26.93C45.4002 27.06 45.5902 27.06 45.6302 26.93L51.6802 8.97C52.6802 5.99 51.6802 2.53 48.9702 0.94H48.9802ZM45.5002 9.7C44.1602 9.7 43.0802 8.62 43.0802 7.28C43.0802 5.94 44.1602 4.86 45.5002 4.86C46.8402 4.86 47.9202 5.94 47.9202 7.28C47.9202 8.62 46.8402 9.7 45.5002 9.7Z" fill="black"/>
<path d="M45.4999 32.1804C46.5327 32.1804 47.3699 31.3432 47.3699 30.3104C47.3699 29.2777 46.5327 28.4404 45.4999 28.4404C44.4671 28.4404 43.6299 29.2777 43.6299 30.3104C43.6299 31.3432 44.4671 32.1804 45.4999 32.1804Z" fill="#231F20"/>
<path d="M1.42013 14.43C0.220131 16.11 -0.279869 18.27 0.150131 20.4L2.52013 32.18H7.82013V30.72C7.82013 30.31 7.49013 29.97 7.07013 29.97L4.54013 30.32L8.64013 24.28L9.92013 25.69C11.2101 27.1 12.7601 28.24 14.5001 29.04L21.3001 32.17H32.8401C32.9801 32.17 33.1201 32.09 33.1901 31.97L34.8801 29.01C35.0201 28.76 34.8401 28.44 34.5501 28.44H30.7301C30.4601 28.44 30.2001 28.31 30.0401 28.08L28.4101 25.77C28.2301 25.51 27.9101 25.37 27.5901 25.42L23.3801 26.06C23.0801 26.11 22.7801 25.99 22.6001 25.76L12.9501 13.81C11.5701 12.32 9.60013 11.38 7.40013 11.38C6.23013 11.38 5.12013 11.65 4.13013 12.12C3.79013 12.28 3.48013 12.47 3.18013 12.68C2.55013 10.43 5.21013 4.76998 6.38013 2.81998C6.46013 2.68998 6.30013 2.55998 6.19013 2.64998C4.76013 3.73998 1.15013 7.19998 1.42013 14.43Z" fill="#231F20"/>
<path d="M89.59 14.43C90.79 16.11 91.29 18.27 90.86 20.4L88.49 32.18H83.19V30.72C83.19 30.31 83.52 29.97 83.94 29.97L86.47 30.32L82.37 24.28L81.09 25.69C79.8 27.1 78.25 28.24 76.51 29.04L69.71 32.17H58.17C58.03 32.17 57.89 32.09 57.82 31.97L56.13 29.01C55.99 28.76 56.17 28.44 56.46 28.44H60.28C60.55 28.44 60.81 28.31 60.97 28.08L62.6 25.77C62.78 25.51 63.1 25.37 63.42 25.42L67.63 26.06C67.93 26.11 68.23 25.99 68.41 25.76L78.06 13.81C79.44 12.32 81.41 11.38 83.61 11.38C84.78 11.38 85.89 11.65 86.88 12.12C87.22 12.28 87.53 12.47 87.83 12.68C88.46 10.43 85.8 4.76998 84.63 2.81998C84.55 2.68998 84.71 2.55998 84.82 2.64998C86.25 3.72998 89.86 7.19998 89.59 14.42V14.43Z" fill="#231F20"/>
</svg>
