<svg width="38" height="29" viewBox="0 0 38 29" fill="none" xmlns="http://www.w3.org/2000/svg">
<path d="M34.9139 0.999098L34.9138 0.999122C36.3897 1.86797 36.8968 3.71256 36.3742 5.26915L36.3741 5.2695L33.6045 13.4981C33.6044 13.4985 33.6043 13.4989 33.6041 13.4993L33.6041 13.4995L33.1302 13.34C33.1102 13.4 33.0302 13.4 33.0102 13.34L34.9139 0.999098ZM34.9139 0.999098L34.9092 0.996447C34.3692 0.686235 33.744 0.5 33.0702 0.5C32.3987 0.5 31.7616 0.685026 31.2271 0.998792L31.2271 0.998792L31.2265 0.999122C29.7507 1.86797 29.2435 3.71256 29.7662 5.26915L29.7663 5.2695L32.5358 13.4981L34.9139 0.999098ZM33.4845 13.1819L33.4841 13.1805L33.4845 13.1819ZM33.0702 4.94C32.7363 4.94 32.4602 4.66386 32.4602 4.33C32.4602 3.99614 32.7363 3.72 33.0702 3.72C33.404 3.72 33.6802 3.99614 33.6802 4.33C33.6802 4.66386 33.404 4.94 33.0702 4.94Z" fill="black" stroke="black"/>
<path d="M18.22 25.9896C18.22 25.4143 17.9702 24.8967 17.5732 24.5396C17.9702 24.1826 18.22 23.665 18.22 23.0896C18.22 22.0135 17.3461 21.1396 16.27 21.1396C15.3667 21.1396 14.6059 21.7554 14.3848 22.5896H4.33518C4.11413 21.7554 3.35333 21.1396 2.45 21.1396C1.37386 21.1396 0.5 22.0135 0.5 23.0896C0.5 23.665 0.749806 24.1826 1.14677 24.5396C0.749806 24.8967 0.5 25.4143 0.5 25.9896C0.5 27.0658 1.37386 27.9396 2.45 27.9396C3.35333 27.9396 4.11413 27.3239 4.33518 26.4896H9.36H14.3848C14.6059 27.3239 15.3667 27.9396 16.27 27.9396C17.3461 27.9396 18.22 27.0658 18.22 25.9896Z" fill="#231F20" stroke="black"/>
<path d="M9.35986 24.54V8.43C9.35986 5.16 12.0099 2.5 15.2899 2.5C18.5699 2.5 21.2199 5.15 21.2199 8.43V21.15C21.2199 24.42 23.8699 27.08 27.1499 27.08C30.4299 27.08 33.0799 24.43 33.0799 21.15V12.84" stroke="#231F20" stroke-width="2" stroke-miterlimit="10"/>
<circle cx="33" cy="4" r="2" fill="white"/>
</svg>
