<svg width="36" height="26" viewBox="0 0 36 26" fill="none" xmlns="http://www.w3.org/2000/svg">
<g clip-path="url(#clip0_1393_4178)">
<path d="M33.6602 0.93C33.1902 0.66 32.6502 0.5 32.0702 0.5C31.4902 0.5 30.9402 0.66 30.4802 0.93C29.2402 1.66 28.7802 3.24 29.2402 4.61L32.0102 12.84C32.0302 12.9 32.1102 12.9 32.1302 12.84L34.9002 4.61C35.3602 3.24 34.9002 1.66 33.6602 0.93ZM32.0702 4.94C31.4602 4.94 30.9602 4.44 30.9602 3.83C30.9602 3.22 31.4602 2.72 32.0702 2.72C32.6802 2.72 33.1802 3.22 33.1802 3.83C33.1802 4.44 32.6802 4.94 32.0702 4.94Z" fill="black"/>
<path d="M8.36 23.9896H13.82C13.82 24.7896 14.47 25.4396 15.27 25.4396C16.07 25.4396 16.72 24.7896 16.72 23.9896C16.72 23.1896 16.07 22.5396 15.27 22.5396C16.07 22.5396 16.72 21.8896 16.72 21.0896C16.72 20.2896 16.07 19.6396 15.27 19.6396C14.47 19.6396 13.82 20.2896 13.82 21.0896H2.9C2.9 20.2896 2.25 19.6396 1.45 19.6396C0.65 19.6396 0 20.2896 0 21.0896C0 21.8896 0.65 22.5396 1.45 22.5396C0.65 22.5396 0 23.1896 0 23.9896C0 24.7896 0.65 25.4396 1.45 25.4396C2.25 25.4396 2.9 24.7896 2.9 23.9896H8.36Z" fill="#231F20"/>
<path d="M8.35986 22.54V6.43C8.35986 3.16 11.0099 0.5 14.2899 0.5C17.5699 0.5 20.2199 3.15 20.2199 6.43V19.15C20.2199 22.42 22.8699 25.08 26.1499 25.08C29.4299 25.08 32.0799 22.43 32.0799 19.15V10.84" stroke="#231F20" stroke-miterlimit="10"/>
</g>
<defs>
<clipPath id="clip0_1393_4178">
<rect width="35.08" height="25.58" fill="white"/>
</clipPath>
</defs>
</svg>
